<svg width="42" height="42" viewBox="0 0 42 42" fill="none" xmlns="http://www.w3.org/2000/svg">
<rect width="42" height="42" rx="21" fill="#00AC07"/>
<path d="M26 20L26.1025 20.0049C26.6067 20.0562 27 20.4823 27 21C27 21.5177 26.6067 21.9438 26.1025 21.9951L26 22H16C15.4477 22 15 21.5523 15 21C15 20.4477 15.4477 20 16 20H26Z" fill="white"/>
<path d="M22 26L21.9951 26.1025C21.9438 26.6067 21.5177 27 21 27C20.4823 27 20.0562 26.6067 20.0049 26.1025L20 26L20 16C20 15.4477 20.4477 15 21 15C21.5523 15 22 15.4477 22 16L22 26Z" fill="white"/>
</svg>
