<svg width="535" height="469" viewBox="0 0 535 469" fill="none" xmlns="http://www.w3.org/2000/svg">
<path fill-rule="evenodd" clip-rule="evenodd" d="M161.099 31.2628C175.358 16.5424 193.48 6.44753 213.231 2.22185C232.982 -2.00382 253.5 -0.175633 272.256 7.48117C291.012 15.138 307.188 28.2889 318.79 45.3135C330.392 62.3381 336.913 82.4926 337.55 103.294C363.176 95.6817 390.665 98.6164 414.238 111.481C437.811 124.345 455.632 146.138 463.955 172.277C472.194 198.343 470.287 226.727 458.637 251.368C446.986 276.01 426.506 295.011 401.524 304.357C416.334 327.082 421.978 354.867 417.26 381.815C412.541 408.764 397.83 432.754 376.25 448.696C354.629 464.806 327.825 471.704 301.404 467.957C274.984 464.21 250.977 450.107 234.371 428.576C224.03 441.999 210.714 452.662 195.545 459.666C180.375 466.67 163.796 469.81 147.205 468.822C130.613 467.834 114.495 462.747 100.207 453.99C85.9186 445.232 73.8797 433.06 65.1038 418.499C54.7789 401.296 49.4777 381.387 49.8349 361.157C50.1921 340.926 56.1924 321.23 67.1177 304.427C42.1973 294.915 21.8157 275.816 10.249 251.135C-1.31767 226.455 -3.17042 198.111 5.07945 172.052C13.3293 145.993 31.0407 124.242 54.4975 111.365C77.9543 98.487 105.334 95.4827 130.891 102.982C131.805 76.0042 142.6 50.3874 161.099 31.2974M308.214 244.17C308.214 286.073 275.085 320.01 234.203 320.01C193.321 320.01 160.193 286.073 160.193 244.17C160.193 202.267 193.321 168.329 234.203 168.329C275.085 168.329 308.214 202.267 308.214 244.17Z" fill="#C0E67E"/>
<path d="M527.394 17.2715L511.12 12.7524C507.689 11.8002 504.41 13.1241 503.377 15.5841C502.963 16.5707 502.935 17.6794 502.718 18.7292L489.676 81.8601C489.459 82.9099 489.278 83.9894 489.48 85.0456C490.832 92.1189 502.176 95.4841 507.186 90.3149C507.951 89.5257 508.396 88.4917 508.79 87.4624L531.606 27.9007C532.07 26.6904 532.778 25.5614 533.057 24.2941C533.613 21.7709 532.361 18.6499 527.394 17.2715Z" fill="#FF0909"/>
<path d="M501.401 117.932C500.1 123.69 494.504 127.298 488.903 125.989C483.302 124.68 479.816 118.951 481.117 113.192C482.418 107.434 488.013 103.827 493.615 105.135C499.216 106.444 502.702 112.173 501.401 117.932Z" fill="#FF0909"/>
<mask id="mask0_33527_26722" style="mask-type:alpha" maskUnits="userSpaceOnUse" x="113" y="121" width="235" height="235">
<path d="M348 238.5C348 303.393 295.393 356 230.5 356C165.607 356 113 303.393 113 238.5C113 173.607 165.607 121 230.5 121C295.393 121 348 173.607 348 238.5Z" fill="#70ACDE"/>
</mask>
<g mask="url(#mask0_33527_26722)">
<circle cx="230.246" cy="238.762" r="117.5" fill="white"/>
</g>
<path d="M206 227C206 234.732 199.732 241 192 241C184.268 241 178 234.732 178 227C178 219.268 184.268 213 192 213C199.732 213 206 219.268 206 227Z" fill="#202020"/>
<path d="M283 227C283 234.732 276.732 241 269 241C261.268 241 255 234.732 255 227C255 219.268 261.268 213 269 213C276.732 213 283 219.268 283 227Z" fill="#202020"/>
<circle cx="156.5" cy="260.5" r="22.5" fill="#FFC5C5"/>
<circle cx="305.5" cy="260.5" r="22.5" fill="#FFC5C5"/>
<circle cx="192.5" cy="227.5" r="8.5" fill="white"/>
<circle cx="269.5" cy="227.5" r="8.5" fill="white"/>
<ellipse cx="230.314" cy="271.977" rx="6.80268" ry="19.4987" fill="white"/>
<path d="M236.881 273.384C236.881 267.343 235.57 262.23 233.799 258.886C232.919 257.223 232.044 256.219 231.382 255.69C230.765 255.197 230.467 255.207 230.437 255.207C230.408 255.207 230.11 255.197 229.492 255.69C228.83 256.219 227.955 257.223 227.075 258.886C225.305 262.23 223.993 267.343 223.993 273.384C223.993 279.425 225.305 284.538 227.075 287.882C227.956 289.546 228.83 290.549 229.492 291.078C230.11 291.571 230.408 291.561 230.437 291.561V298.768L229.745 298.735C222.875 298.077 217.367 287.67 217.018 274.691L217 273.384C217 259.365 223.016 248 230.437 248C237.858 248 243.874 259.365 243.874 273.384L243.856 274.691C243.496 288.103 237.626 298.768 230.437 298.768V291.561C230.467 291.561 230.764 291.571 231.382 291.078C232.044 290.549 232.919 289.546 233.799 287.882C235.57 284.538 236.881 279.425 236.881 273.384Z" fill="#1F1F22"/>
</svg>
