<svg width="528" height="303" viewBox="0 0 528 303" fill="none" xmlns="http://www.w3.org/2000/svg">
<path d="M62.66 56.08C57.05 54.38 51.61 53.02 46 51.83C32.23 49.62 35.29 71.04 46.34 65.6C56.54 60.5 74.39 58.97 74.73 70.87C75.07 80.9 62.15 89.91 49.57 86.34C43.79 84.64 39.71 85.15 39.03 89.4C38.18 92.12 38.52 95.18 40.05 97.73C43.11 102.15 47.7 104.36 52.46 101.47C59.26 97.22 63.34 88.55 67.93 87.36C82.38 83.79 93.09 114.56 75.58 124.25C48.21 139.38 10.13 128.84 18.97 101.47C22.2 91.61 24.75 83.11 24.24 73.42C24.24 64.58 22.37 55.91 18.97 47.92C8.94 20.72 28.49 11.54 45.32 23.1C51.95 27.69 55.52 28.54 70.14 23.95C90.37 17.49 82.89 61.86 62.66 56.08ZM119.695 76.31C117.995 85.15 117.995 94.33 119.865 103C129.555 147.54 89.095 137 91.305 100.45C92.325 83.96 100.485 81.58 91.985 53.19C85.355 31.26 110.175 29.9 113.405 40.44C115.955 49.45 119.525 43.84 121.395 41.46C125.305 36.7 131.255 33.81 137.375 33.81C143.665 33.81 149.615 36.36 153.695 41.12C165.595 55.4 157.435 76.99 156.075 91.78C155.395 98.75 156.075 111.67 159.985 119.32C171.035 140.91 135.845 149.07 127.855 122.89C125.645 115.58 125.135 100.96 127.515 94.5C128.875 91.1 134.655 66.11 134.655 64.58C135.335 54.55 121.905 62.71 119.695 76.31ZM204.645 13.41C206.855 16.64 207.875 28.88 201.245 33.13C195.465 36.7 185.775 37.89 181.865 30.24C170.305 7.79999 195.635 0.149989 204.645 13.41ZM179.655 59.65C165.885 36.53 212.805 29.05 211.105 60.33C209.915 80.73 208.555 103.68 213.825 118.3C219.435 133.77 198.015 160.29 172.685 148.73C147.015 137 170.645 99.26 187.475 117.45C193.595 123.91 191.895 123.74 194.275 118.47C197.165 111.84 190.875 78.69 179.655 59.65ZM273.627 55.57C287.737 73.25 289.267 92.12 286.377 103.51C281.277 124.08 268.357 132.92 246.937 131.9C241.667 131.73 227.217 128.5 220.247 108.78C215.827 96.03 220.417 71.72 224.327 63.05C237.247 34.49 258.837 37.04 273.627 55.57ZM259.857 91.95C264.447 87.19 264.447 76.99 258.837 68.32C255.437 63.05 249.997 61.86 246.257 70.36C241.837 80.05 248.807 103 259.857 91.95ZM296.382 49.28C303.352 30.24 334.122 33.98 326.472 52.17C312.702 84.81 321.712 90.42 327.832 94.16C337.012 99.77 318.312 71.89 332.932 45.2C338.712 34.83 345.172 29.22 351.462 29.73C362.852 30.58 369.312 38.57 359.112 56.93C349.762 73.93 350.782 98.07 359.962 118.13C367.272 134.28 347.722 158.59 315.592 150.6C277.682 141.25 308.962 89.23 328.002 123.57C332.592 132.07 339.222 133.43 338.032 118.47C337.862 115.75 334.292 102.15 328.852 105.38C322.052 109.46 311.852 114.05 302.332 104.53C301.142 103.34 284.312 81.75 296.382 49.28ZM18.97 193.28C25.94 174.24 56.71 177.98 49.06 196.17C35.29 228.81 44.3 234.42 50.42 238.16C59.6 243.77 40.9 215.89 55.52 189.2C61.3 178.83 67.76 173.22 74.05 173.73C85.44 174.58 91.9 182.57 81.7 200.93C72.35 217.93 73.37 242.07 82.55 262.13C89.86 278.28 70.31 302.59 38.18 294.6C0.269999 285.25 31.55 233.23 50.59 267.57C55.18 276.07 61.81 277.43 60.62 262.47C60.45 259.75 56.88 246.15 51.44 249.38C44.64 253.46 34.44 258.05 24.92 248.53C23.73 247.34 6.9 225.75 18.97 193.28ZM141.313 199.57C155.423 217.25 156.953 236.12 154.063 247.51C148.963 268.08 136.043 276.92 114.623 275.9C109.353 275.73 94.9029 272.5 87.9329 252.78C83.5129 240.03 88.1029 215.72 92.0129 207.05C104.933 178.49 126.523 181.04 141.313 199.57ZM127.543 235.95C132.133 231.19 132.133 220.99 126.523 212.32C123.123 207.05 117.683 205.86 113.943 214.36C109.523 224.05 116.493 247 127.543 235.95ZM201.128 234.08C199.428 228.98 196.028 211.47 194.498 204.67C188.038 177.81 233.598 169.82 223.398 203.65C211.838 241.56 230.368 241.73 221.868 257.71C210.818 278.45 186.508 280.66 178.858 277.43C166.618 271.99 156.928 262.98 163.898 231.02C166.448 219.63 159.308 199.06 162.198 192.26C171.208 171.52 196.368 182.91 187.868 200.93C177.838 222.52 183.278 254.82 195.178 253.29C200.448 252.44 206.398 250.57 201.128 234.08ZM258.092 221.84C257.582 233.23 258.432 242.92 260.642 248.02C277.642 289.5 229.192 291.03 233.612 247.51C235.312 231.36 240.752 226.6 232.592 198.89C226.132 177.47 250.102 176.11 252.992 186.48C255.712 195.15 260.642 184.1 262.852 181.55C270.502 172.88 285.632 177.81 290.562 188.86C300.762 211.47 272.032 233.91 268.972 213.17C268.122 207.56 261.152 202.12 259.452 209.6C258.772 213.68 258.262 217.76 258.092 221.84ZM353.676 239.69C360.136 275.39 306.076 294.26 298.256 262.98C290.606 232.72 294.516 185.29 295.196 173.9C296.386 151.46 326.136 158.6 327.666 185.8C329.026 208.41 313.896 243.6 317.466 254.65C321.036 265.19 328.006 255.16 323.926 240.88C318.826 222.69 348.916 213.17 353.676 239.69ZM383.596 157.75C385.806 160.98 386.826 173.22 380.196 177.47C374.416 181.21 364.726 182.4 360.816 174.58C349.256 152.14 374.586 144.66 383.596 157.75ZM360.816 273.86C350.616 265.7 364.726 252.95 361.836 229.49C360.816 221.5 353.846 198.38 358.946 191.07C365.236 182.57 381.386 181.04 385.126 192.09C389.206 203.65 378.496 213.68 385.636 234.93C400.086 278.11 368.466 279.98 360.816 273.86ZM401.428 251.59C405.508 241.56 407.548 228.3 405.848 219.29C404.488 218.95 403.298 218.95 402.108 219.29C387.317 223.71 387.147 196 400.748 196.17C406.188 196.17 406.188 192.09 400.918 180.36C390.378 156.39 404.658 150.44 413.498 150.44C425.738 150.61 438.488 161.15 440.528 171.35C442.908 184.44 427.778 193.45 422.168 181.72C416.898 171.01 421.148 190.9 422.508 194.47C422.848 195.32 425.568 195.32 430.328 193.62C445.458 188.52 443.588 215.38 432.028 215.55C430.498 215.55 427.438 216.06 427.438 217.08C426.758 221.5 435.938 260.26 430.838 271.31C421.488 291.54 390.548 278.96 401.428 251.59ZM479.93 219.12C488.26 208.07 469.05 198.38 464.12 217.08C462.76 222.35 462.59 226.77 463.95 228.13C465.99 230.17 477.04 223.03 479.93 219.12ZM479.76 250.57C491.32 224.39 527.53 239.01 503.22 265.53C489.45 280.66 468.37 283.21 455.62 276.58C448.82 272.84 443.89 266.38 442.02 258.9C440.15 251.25 441.68 243.43 446.1 236.97C456.47 221.5 439.13 217.59 448.14 198.38C455.79 182.23 473.98 172.54 498.63 185.29C508.49 190.05 513.93 200.76 511.89 211.47C510.53 219.63 507.47 231.7 478.23 239.35C441.68 248.87 471.26 269.78 479.76 250.57Z" fill="white"/>
</svg>
